<svg width="198" height="24" viewBox="0 0 198 24" fill="none" xmlns="http://www.w3.org/2000/svg">
<rect x="6" y="7" width="10" height="10" fill="black"/>
<rect x="0.5" y="1.5" width="21" height="21" stroke="black"/>
<path d="M42.341 18.085C41.491 18.085 40.7203 17.915 40.029 17.575C39.3377 17.235 38.737 16.776 38.227 16.198C37.7283 15.6087 37.343 14.9513 37.071 14.226C36.799 13.4893 36.663 12.7357 36.663 11.965C36.663 11.1603 36.8047 10.3953 37.088 9.67C37.3827 8.93333 37.785 8.28167 38.295 7.715C38.8163 7.137 39.4227 6.68367 40.114 6.355C40.8053 6.015 41.559 5.845 42.375 5.845C43.225 5.845 43.9957 6.02067 44.687 6.372C45.3783 6.72333 45.9733 7.19367 46.472 7.783C46.9707 8.37233 47.356 9.02967 47.628 9.755C47.9 10.4803 48.036 11.2227 48.036 11.982C48.036 12.7867 47.8943 13.5573 47.611 14.294C47.3277 15.0193 46.9253 15.671 46.404 16.249C45.894 16.8157 45.2933 17.2633 44.602 17.592C43.9107 17.9207 43.157 18.085 42.341 18.085ZM38.21 11.965C38.21 12.577 38.3063 13.172 38.499 13.75C38.703 14.3167 38.9863 14.821 39.349 15.263C39.7117 15.705 40.148 16.0563 40.658 16.317C41.168 16.5777 41.7347 16.708 42.358 16.708C43.004 16.708 43.582 16.572 44.092 16.3C44.602 16.028 45.0327 15.6653 45.384 15.212C45.7467 14.7587 46.0187 14.2487 46.2 13.682C46.3927 13.1153 46.489 12.543 46.489 11.965C46.489 11.353 46.387 10.7637 46.183 10.197C45.9903 9.63033 45.707 9.126 45.333 8.684C44.9703 8.23067 44.534 7.87933 44.024 7.63C43.5253 7.36933 42.97 7.239 42.358 7.239C41.712 7.239 41.134 7.375 40.624 7.647C40.114 7.90767 39.6777 8.26467 39.315 8.718C38.9637 9.17133 38.6917 9.68133 38.499 10.248C38.3063 10.8033 38.21 11.3757 38.21 11.965ZM50.1638 18V9.126H57.5248V18H56.0288V10.452H51.6598V18H50.1638ZM59.5005 18.068V16.725C59.8858 16.7137 60.2258 16.572 60.5205 16.3C60.8152 16.028 61.0475 15.5293 61.2175 14.804C61.3988 14.0787 61.5122 13.0417 61.5575 11.693L61.6595 9.126H67.6945V18H66.1985V10.452H62.9855L62.9515 11.829C62.8948 13.4383 62.7305 14.6963 62.4585 15.603C62.1978 16.5097 61.8182 17.1443 61.3195 17.507C60.8322 17.8697 60.2258 18.0567 59.5005 18.068ZM69.7536 15.433C69.7536 14.8663 69.9123 14.379 70.2296 13.971C70.5583 13.5517 71.006 13.2287 71.5726 13.002C72.1393 12.7753 72.7966 12.662 73.5446 12.662C73.9413 12.662 74.3606 12.696 74.8026 12.764C75.2446 12.8207 75.6356 12.9113 75.9756 13.036V12.39C75.9756 11.71 75.7716 11.1773 75.3636 10.792C74.9556 10.3953 74.3776 10.197 73.6296 10.197C73.1423 10.197 72.672 10.2877 72.2186 10.469C71.7766 10.639 71.3063 10.8883 70.8076 11.217L70.2636 10.163C70.8416 9.76633 71.4196 9.47167 71.9976 9.279C72.5756 9.075 73.1763 8.973 73.7996 8.973C74.933 8.973 75.8283 9.29033 76.4856 9.925C77.143 10.5483 77.4716 11.421 77.4716 12.543V16.3C77.4716 16.6513 77.6303 16.8327 77.9476 16.844V18C77.8003 18.0227 77.67 18.0397 77.5566 18.051C77.4546 18.0623 77.3696 18.068 77.3016 18.068C76.9503 18.068 76.684 17.9717 76.5026 17.779C76.3326 17.5863 76.2363 17.3823 76.2136 17.167L76.1796 16.606C75.7943 17.1047 75.29 17.49 74.6666 17.762C74.0433 18.034 73.4256 18.17 72.8136 18.17C72.2243 18.17 71.6973 18.051 71.2326 17.813C70.768 17.5637 70.4053 17.235 70.1446 16.827C69.884 16.4077 69.7536 15.943 69.7536 15.433ZM75.5336 16.062C75.6696 15.9033 75.7773 15.7447 75.8566 15.586C75.936 15.416 75.9756 15.2743 75.9756 15.161V14.056C75.2503 13.7727 74.5023 13.631 73.7316 13.631C72.9723 13.631 72.3546 13.784 71.8786 14.09C71.414 14.3847 71.1816 14.7927 71.1816 15.314C71.1816 15.5973 71.2553 15.875 71.4026 16.147C71.5613 16.4077 71.788 16.623 72.0826 16.793C72.3886 16.963 72.7626 17.048 73.2046 17.048C73.6693 17.048 74.1113 16.9573 74.5306 16.776C74.95 16.5833 75.2843 16.3453 75.5336 16.062ZM82.2631 18V10.452H79.2031V9.126H86.8191V10.452H83.7591V18H82.2631ZM87.9649 15.433C87.9649 14.8663 88.1236 14.379 88.4409 13.971C88.7696 13.5517 89.2172 13.2287 89.7839 13.002C90.3506 12.7753 91.0079 12.662 91.7559 12.662C92.1526 12.662 92.5719 12.696 93.0139 12.764C93.4559 12.8207 93.8469 12.9113 94.1869 13.036V12.39C94.1869 11.71 93.9829 11.1773 93.5749 10.792C93.1669 10.3953 92.5889 10.197 91.8409 10.197C91.3536 10.197 90.8832 10.2877 90.4299 10.469C89.9879 10.639 89.5176 10.8883 89.0189 11.217L88.4749 10.163C89.0529 9.76633 89.6309 9.47167 90.2089 9.279C90.7869 9.075 91.3876 8.973 92.0109 8.973C93.1442 8.973 94.0396 9.29033 94.6969 9.925C95.3542 10.5483 95.6829 11.421 95.6829 12.543V16.3C95.6829 16.6513 95.8416 16.8327 96.1589 16.844V18C96.0116 18.0227 95.8812 18.0397 95.7679 18.051C95.6659 18.0623 95.5809 18.068 95.5129 18.068C95.1616 18.068 94.8952 17.9717 94.7139 17.779C94.5439 17.5863 94.4476 17.3823 94.4249 17.167L94.3909 16.606C94.0056 17.1047 93.5012 17.49 92.8779 17.762C92.2546 18.034 91.6369 18.17 91.0249 18.17C90.4356 18.17 89.9086 18.051 89.4439 17.813C88.9792 17.5637 88.6166 17.235 88.3559 16.827C88.0952 16.4077 87.9649 15.943 87.9649 15.433ZM93.7449 16.062C93.8809 15.9033 93.9886 15.7447 94.0679 15.586C94.1472 15.416 94.1869 15.2743 94.1869 15.161V14.056C93.4616 13.7727 92.7136 13.631 91.9429 13.631C91.1836 13.631 90.5659 13.784 90.0899 14.09C89.6252 14.3847 89.3929 14.7927 89.3929 15.314C89.3929 15.5973 89.4666 15.875 89.6139 16.147C89.7726 16.4077 89.9992 16.623 90.2939 16.793C90.5999 16.963 90.9739 17.048 91.4159 17.048C91.8806 17.048 92.3226 16.9573 92.7419 16.776C93.1612 16.5833 93.4956 16.3453 93.7449 16.062ZM103.038 18V9.126H104.534V12.798H109.158V9.126H110.654V18H109.158V14.124H104.534V18H103.038ZM112.709 15.433C112.709 14.8663 112.867 14.379 113.185 13.971C113.513 13.5517 113.961 13.2287 114.528 13.002C115.094 12.7753 115.752 12.662 116.5 12.662C116.896 12.662 117.316 12.696 117.758 12.764C118.2 12.8207 118.591 12.9113 118.931 13.036V12.39C118.931 11.71 118.727 11.1773 118.319 10.792C117.911 10.3953 117.333 10.197 116.585 10.197C116.097 10.197 115.627 10.2877 115.174 10.469C114.732 10.639 114.261 10.8883 113.763 11.217L113.219 10.163C113.797 9.76633 114.375 9.47167 114.953 9.279C115.531 9.075 116.131 8.973 116.755 8.973C117.888 8.973 118.783 9.29033 119.441 9.925C120.098 10.5483 120.427 11.421 120.427 12.543V16.3C120.427 16.6513 120.585 16.8327 120.903 16.844V18C120.755 18.0227 120.625 18.0397 120.512 18.051C120.41 18.0623 120.325 18.068 120.257 18.068C119.905 18.068 119.639 17.9717 119.458 17.779C119.288 17.5863 119.191 17.3823 119.169 17.167L119.135 16.606C118.749 17.1047 118.245 17.49 117.622 17.762C116.998 18.034 116.381 18.17 115.769 18.17C115.179 18.17 114.652 18.051 114.188 17.813C113.723 17.5637 113.36 17.235 113.1 16.827C112.839 16.4077 112.709 15.943 112.709 15.433ZM118.489 16.062C118.625 15.9033 118.732 15.7447 118.812 15.586C118.891 15.416 118.931 15.2743 118.931 15.161V14.056C118.205 13.7727 117.457 13.631 116.687 13.631C115.927 13.631 115.31 13.784 114.834 14.09C114.369 14.3847 114.137 14.7927 114.137 15.314C114.137 15.5973 114.21 15.875 114.358 16.147C114.516 16.4077 114.743 16.623 115.038 16.793C115.344 16.963 115.718 17.048 116.16 17.048C116.624 17.048 117.066 16.9573 117.486 16.776C117.905 16.5833 118.239 16.3453 118.489 16.062ZM122.377 18.068V16.725C122.762 16.7137 123.102 16.572 123.397 16.3C123.691 16.028 123.924 15.5293 124.094 14.804C124.275 14.0787 124.388 13.0417 124.434 11.693L124.536 9.126H130.571V18H129.075V10.452H125.862L125.828 11.829C125.771 13.4383 125.607 14.6963 125.335 15.603C125.074 16.5097 124.694 17.1443 124.196 17.507C123.708 17.8697 123.102 18.0567 122.377 18.068ZM133.31 18V9.143H134.806V15.994L139.77 9.126H141.13V18H139.634V11.285L134.738 18H133.31ZM148.892 18V14.447C148.201 14.7757 147.419 14.94 146.546 14.94C144.574 14.94 143.588 13.9313 143.588 11.914V9.126H145.084V11.71C145.084 12.424 145.231 12.9453 145.526 13.274C145.821 13.6027 146.291 13.767 146.937 13.767C147.3 13.767 147.657 13.7273 148.008 13.648C148.371 13.5687 148.665 13.461 148.892 13.325V9.126H150.405V18H148.892ZM153.148 18V9.126H154.644V12.798H159.268V9.126H160.764V18H159.268V14.124H154.644V18H153.148ZM163.499 18V9.126H164.995V12.152H166.797C167.839 12.152 168.627 12.4183 169.16 12.951C169.704 13.4723 169.976 14.158 169.976 15.008C169.976 15.858 169.715 16.572 169.194 17.15C168.672 17.7167 167.907 18 166.899 18H163.499ZM171.506 18V9.143H173.002V18H171.506ZM164.995 16.827H166.695C167.318 16.827 167.766 16.6513 168.038 16.3C168.321 15.9373 168.463 15.518 168.463 15.042C168.463 14.5773 168.332 14.175 168.072 13.835C167.811 13.495 167.341 13.325 166.661 13.325H164.995V16.827ZM175.742 18V9.126H177.289L180.587 14.94L183.902 9.126H185.415V18H183.987V11.285L181.063 16.419H180.111L177.17 11.285V18H175.742ZM188.151 18V9.143H189.647V15.994L194.611 9.126H195.971V18H194.475V11.285L189.579 18H188.151Z" fill="black"/>
</svg>
